# xmcd
#
# Track frame offsets:
#  150
#  10326
#  23144
#  36381
#  47568
#  66222
#  80903
#  94153
#  106963
#  122271
#
# Disc length: 1794 seconds
#
# Revision: 0
# Processed by: cddbd v1.5.2PL0 Copyright (c) Steve Scherf et al.
# Submitted via: Collectorz.com_Music_Collector 6.11
#
DISCID=7c07000a
DTITLE=Little Deaths - Destination: Sexy
DYEAR=1999
DGENRE=Punk
TTITLE0=Found Dead
TTITLE1=Blackheart
TTITLE2=The Drowning Song
TTITLE3=Sugartooth
TTITLE4=The First Lie Part Two
TTITLE5=Tired
TTITLE6=Feeling For A Face
TTITLE7=Cancer Scene
TTITLE8=H-Baby
TTITLE9=Drama Control
EXTD=
EXTT0=
EXTT1=
EXTT2=
EXTT3=
EXTT4=
EXTT5=
EXTT6=
EXTT7=
EXTT8=
EXTT9=
PLAYORDER=
